<svg width="20" height="17" viewBox="0 0 20 17" fill="none" xmlns="http://www.w3.org/2000/svg">
<path d="M1 1H3.80343L6.11522 11.6724H16.7876" stroke="#f45334" stroke-miterlimit="10" stroke-linecap="round" stroke-linejoin="round"/>
<path d="M4.29492 3.06641H18.9998L17.083 9.31129H5.73669" stroke="#f45334" stroke-miterlimit="10" stroke-linecap="round" stroke-linejoin="round"/>
<path d="M8.20027 16.382C9.08348 16.382 9.79947 15.666 9.79947 14.7828C9.79947 13.8996 9.08348 13.1836 8.20027 13.1836C7.31706 13.1836 6.60107 13.8996 6.60107 14.7828C6.60107 15.666 7.31706 16.382 8.20027 16.382Z" stroke="#f45334" stroke-miterlimit="10" stroke-linecap="round" stroke-linejoin="round"/>
<path d="M14.3985 16.382C15.2817 16.382 15.9977 15.666 15.9977 14.7828C15.9977 13.8996 15.2817 13.1836 14.3985 13.1836C13.5153 13.1836 12.7993 13.8996 12.7993 14.7828C12.7993 15.666 13.5153 16.382 14.3985 16.382Z" stroke="#f45334" stroke-miterlimit="10" stroke-linecap="round" stroke-linejoin="round"/>
</svg>
