<svg class='articleUnSavedIcon' width="12" height="15" viewBox="0 0 12 15" fill="none" xmlns="http://www.w3.org/2000/svg">
<mask id="path-1-inside-1" fill="white">
<path fill-rule="evenodd" clip-rule="evenodd" d="M11.8006 1C11.8006 0.447715 11.3529 0 10.8006 0H1C0.447715 0 0 0.447716 0 1V13.039C0 13.8898 0.994746 14.352 1.64492 13.8033L5.23538 10.7735C5.6166 10.4518 6.1766 10.4602 6.54795 10.7932L10.4719 14.3123C10.8533 14.6543 11.463 14.6564 11.6552 14.1816C11.7489 13.95 11.8006 13.6968 11.8006 13.4315V1Z"/>
</mask>
<path d="M10.4719 14.3123L9.80426 15.0568L10.4719 14.3123ZM11.6552 14.1816L12.5821 14.5569L11.6552 14.1816ZM5.23538 10.7735L5.8803 11.5377L5.23538 10.7735ZM6.54795 10.7932L5.8803 11.5377L6.54795 10.7932ZM1 1H10.8006V-1H1V1ZM1 13.039V1H-1V13.039H1ZM2.28984 14.5675L5.8803 11.5377L4.59046 10.0092L1 13.039L2.28984 14.5675ZM5.8803 11.5377L9.80426 15.0568L11.1396 13.5678L7.21561 10.0488L5.8803 11.5377ZM10.8006 13.4315C10.8006 13.566 10.7746 13.6919 10.7283 13.8064L12.5821 14.5569C12.7233 14.208 12.8006 13.8276 12.8006 13.4315H10.8006ZM10.8006 1V13.4315H12.8006V1H10.8006ZM9.80426 15.0568C10.1802 15.394 10.6899 15.5877 11.206 15.5507C11.7587 15.5111 12.3243 15.1936 12.5821 14.5569L10.7283 13.8064C10.7523 13.747 10.8027 13.6764 10.881 13.6232C10.9544 13.5733 11.0225 13.5587 11.0629 13.5558C11.102 13.553 11.1234 13.5599 11.1287 13.5618C11.1349 13.564 11.1376 13.566 11.1396 13.5678L9.80426 15.0568ZM5.8803 11.5377H5.8803L7.21561 10.0488C6.4729 9.38269 5.3529 9.36581 4.59046 10.0092L5.8803 11.5377ZM-1 13.039C-1 14.7405 0.989492 15.6649 2.28984 14.5675L1 13.039H-1ZM10.8006 1H10.8006H12.8006C12.8006 -0.104568 11.9052 -1 10.8006 -1V1ZM1 -1C-0.10457 -1 -1 -0.104569 -1 1H1L1 1V-1Z" fill="#BABABA" mask="url(#path-1-inside-1)"/>
</svg>
